<svg width="354" height="163" viewBox="0 0 354 163" fill="none" xmlns="http://www.w3.org/2000/svg">
<path d="M1.66016 36.1484L3.32031 33.5117C4.16667 34.2018 5.01302 34.7747 5.85938 35.2305C6.70573 35.6862 7.5651 36.0247 8.4375 36.2461C9.32292 36.4674 10.2214 36.5781 11.1328 36.5781C12.4609 36.5781 13.6198 36.3568 14.6094 35.9141C15.612 35.4714 16.3932 34.8594 16.9531 34.0781C17.513 33.2839 17.793 32.3724 17.793 31.3438C17.793 30.224 17.474 29.2995 16.8359 28.5703C16.2109 27.8281 15.3971 27.1966 14.3945 26.6758C13.3919 26.1549 12.3242 25.6602 11.1914 25.1914C10.2409 24.7878 9.29688 24.3581 8.35938 23.9023C7.42188 23.4466 6.56901 22.9193 5.80078 22.3203C5.04557 21.7083 4.4401 20.9727 3.98438 20.1133C3.52865 19.2539 3.30078 18.2188 3.30078 17.0078C3.30078 15.4583 3.69141 14.0911 4.47266 12.9062C5.25391 11.7214 6.33464 10.7969 7.71484 10.1328C9.10807 9.46875 10.7096 9.13672 12.5195 9.13672C13.7435 9.13672 14.974 9.29948 16.2109 9.625C17.4479 9.9375 18.6458 10.3997 19.8047 11.0117L18.3984 13.8242C17.487 13.2904 16.5299 12.8802 15.5273 12.5938C14.5378 12.3073 13.5612 12.1641 12.5977 12.1641C11.4518 12.1641 10.4427 12.3594 9.57031 12.75C8.71094 13.1276 8.03385 13.6615 7.53906 14.3516C7.05729 15.0286 6.81641 15.8229 6.81641 16.7344C6.81641 17.75 7.10938 18.6029 7.69531 19.293C8.29427 19.9831 9.0625 20.582 10 21.0898C10.9505 21.5846 11.9531 22.0664 13.0078 22.5352C14.0104 22.9779 15 23.4466 15.9766 23.9414C16.9661 24.4232 17.8581 24.9961 18.6523 25.6602C19.4596 26.3112 20.1042 27.0924 20.5859 28.0039C21.0677 28.9154 21.3086 30.0156 21.3086 31.3047C21.3086 32.9583 20.8919 34.4102 20.0586 35.6602C19.2253 36.8971 18.0534 37.8607 16.543 38.5508C15.0456 39.2409 13.2878 39.5859 11.2695 39.5859C9.4987 39.5859 7.8125 39.2995 6.21094 38.7266C4.60938 38.1536 3.09245 37.2943 1.66016 36.1484ZM27.4609 39H23.8477L35.8789 9.70312H39.6094L51.6211 39H48.0078L44.8242 31.0898H30.6445L27.4609 39ZM31.8555 28.043H43.6133L37.7344 13.4141L31.8555 28.043ZM76.6992 39H72.8711L65.8789 27.0859H58.9648V39H55.5273V9.70312H65.6641C67.7604 9.70312 69.5638 10.0547 71.0742 10.7578C72.5846 11.4609 73.75 12.4635 74.5703 13.7656C75.3906 15.0547 75.8008 16.5977 75.8008 18.3945C75.8008 20.4909 75.2409 22.2487 74.1211 23.668C73.0143 25.0872 71.4583 26.0703 69.4531 26.6172L76.6992 39ZM58.9648 24.0391H65.4492C67.5716 24.0391 69.2383 23.5378 70.4492 22.5352C71.6732 21.5326 72.2852 20.1523 72.2852 18.3945C72.2852 16.6367 71.6797 15.2565 70.4688 14.2539C69.2578 13.2513 67.5846 12.75 65.4492 12.75H58.9648V24.0391ZM82.6562 39H79.043L91.0742 9.70312H94.8047L106.816 39H103.203L100.02 31.0898H85.8398L82.6562 39ZM87.0508 28.043H98.8086L92.9297 13.4141L87.0508 28.043Z" fill="#fafafa"/>
<path d="M13.2812 104H0.3125L18.625 57.125H31.5938L49.875 104H36.9062L33.875 95.6562H16.3125L13.2812 104ZM20.25 84.875H29.9688L25.0938 71.5L20.25 84.875ZM85.1875 104H53.3125V57.125H65.6875V93.2188H85.1875V104ZM140.969 104H128.594V74.875L119.5 96.125H110.375L101.312 74.9375V104H88.9375V57.125H104.562L114.938 82.1875L125.344 57.125H140.969V104ZM193.25 112.281C190.312 111.615 187.708 110.938 185.438 110.25C183.167 109.583 181 108.823 178.938 107.969C176.896 107.115 174.698 106.094 172.344 104.906H170.875C167.292 104.906 163.979 104.302 160.938 103.094C157.917 101.865 155.281 100.156 153.031 97.9688C150.802 95.7812 149.073 93.2083 147.844 90.25C146.615 87.2917 146 84.0625 146 80.5625C146 77.0625 146.615 73.8333 147.844 70.875C149.073 67.9167 150.802 65.3438 153.031 63.1562C155.281 60.9479 157.917 59.2396 160.938 58.0312C163.979 56.8021 167.302 56.1875 170.906 56.1875C174.49 56.1875 177.792 56.8021 180.812 58.0312C183.833 59.2396 186.448 60.9479 188.656 63.1562C190.885 65.3438 192.615 67.9167 193.844 70.875C195.073 73.8333 195.688 77.0625 195.688 80.5625C195.688 83.5625 195.219 86.3854 194.281 89.0312C193.365 91.6562 192.062 94.0208 190.375 96.125C188.688 98.2083 186.677 99.9479 184.344 101.344C185.594 101.573 186.823 101.781 188.031 101.969C189.26 102.135 190.521 102.271 191.812 102.375C193.104 102.479 194.479 102.562 195.938 102.625L193.25 112.281ZM170.875 94.1562C172.604 94.1562 174.208 93.8125 175.688 93.125C177.167 92.4375 178.448 91.4792 179.531 90.25C180.635 89 181.49 87.5521 182.094 85.9062C182.719 84.2604 183.031 82.4792 183.031 80.5625C183.031 78.6458 182.719 76.8646 182.094 75.2188C181.49 73.5729 180.635 72.1354 179.531 70.9062C178.448 69.6562 177.167 68.6875 175.688 68C174.208 67.3125 172.604 66.9688 170.875 66.9688C169.146 66.9688 167.531 67.3125 166.031 68C164.552 68.6875 163.26 69.6562 162.156 70.9062C161.052 72.1354 160.188 73.5729 159.562 75.2188C158.958 76.8646 158.656 78.6458 158.656 80.5625C158.656 82.4792 158.958 84.2604 159.562 85.9062C160.188 87.5521 161.052 89 162.156 90.25C163.26 91.4792 164.552 92.4375 166.031 93.125C167.531 93.8125 169.146 94.1562 170.875 94.1562ZM226.594 104H213.625L195.312 57.125H208.281L220.094 89.625L231.906 57.125H244.875L226.594 104ZM260.688 57.125V104H248.312V57.125H260.688ZM264.75 98.625L270.562 89.1875C272.083 90.375 273.5 91.3438 274.812 92.0938C276.146 92.8438 277.438 93.3958 278.688 93.75C279.958 94.0833 281.25 94.25 282.562 94.25C283.854 94.25 284.958 94.1042 285.875 93.8125C286.792 93.5 287.49 93.0625 287.969 92.5C288.469 91.9167 288.719 91.2292 288.719 90.4375C288.719 89.4375 288.365 88.5833 287.656 87.875C286.948 87.1667 286 86.5312 284.812 85.9688C283.646 85.4062 282.365 84.8438 280.969 84.2812C279.469 83.6771 277.938 83.0104 276.375 82.2812C274.812 81.5312 273.375 80.625 272.062 79.5625C270.75 78.5 269.688 77.2083 268.875 75.6875C268.062 74.1458 267.656 72.2708 267.656 70.0625C267.656 67.1458 268.385 64.6562 269.844 62.5938C271.323 60.5104 273.333 58.9271 275.875 57.8438C278.438 56.7396 281.333 56.1875 284.562 56.1875C286.917 56.1875 289.406 56.5 292.031 57.125C294.656 57.75 297.312 58.7292 300 60.0625L295.188 70C293.688 69.0833 292.042 68.3542 290.25 67.8125C288.479 67.25 286.854 66.9688 285.375 66.9688C284.354 66.9688 283.458 67.1042 282.688 67.375C281.938 67.6458 281.354 68.0417 280.938 68.5625C280.521 69.0625 280.312 69.6562 280.312 70.3438C280.312 71.2604 280.667 72.0729 281.375 72.7812C282.083 73.4688 283.021 74.1042 284.188 74.6875C285.354 75.2708 286.625 75.8646 288 76.4688C289.5 77.1146 291.031 77.8333 292.594 78.625C294.177 79.4167 295.625 80.3542 296.938 81.4375C298.271 82.5208 299.344 83.8229 300.156 85.3438C300.969 86.8438 301.375 88.6458 301.375 90.75C301.375 93.5625 300.604 96.0417 299.062 98.1875C297.542 100.312 295.406 101.969 292.656 103.156C289.927 104.344 286.75 104.938 283.125 104.938C279.75 104.938 276.5 104.396 273.375 103.312C270.25 102.229 267.375 100.667 264.75 98.625ZM328 104H315.625V67.9062H302.625V57.125H341V67.9062H328V104Z" fill="#fafafa"/>
<path d="M1.81641 147V129.422H12.4102V131.25H3.87891V137.156H11.9297V138.984H3.87891V147H1.81641ZM17.1445 147H15.2227V135.281H16.9102L16.9922 137.602C17.3984 136.797 17.9688 136.172 18.7031 135.727C19.4453 135.273 20.2969 135.047 21.2578 135.047C21.4688 135.047 21.6836 135.059 21.9023 135.082C22.1211 135.105 22.3398 135.141 22.5586 135.188L22.3242 136.922C21.8945 136.82 21.4688 136.77 21.0469 136.77C20.2812 136.77 19.6016 136.957 19.0078 137.332C18.4219 137.707 17.9648 138.223 17.6367 138.879C17.3086 139.535 17.1445 140.289 17.1445 141.141V147ZM29.7539 147.234C28.5898 147.234 27.543 146.969 26.6133 146.438C25.6836 145.906 24.9492 145.184 24.4102 144.27C23.8789 143.348 23.6133 142.305 23.6133 141.141C23.6133 139.984 23.8789 138.949 24.4102 138.035C24.9492 137.113 25.6836 136.387 26.6133 135.855C27.543 135.316 28.5898 135.047 29.7539 135.047C30.918 135.047 31.9609 135.316 32.8828 135.855C33.8047 136.387 34.5312 137.113 35.0625 138.035C35.5938 138.949 35.8594 139.984 35.8594 141.141C35.8594 142.305 35.5938 143.348 35.0625 144.27C34.5312 145.184 33.8047 145.906 32.8828 146.438C31.9609 146.969 30.918 147.234 29.7539 147.234ZM29.7422 145.5C30.5312 145.5 31.2383 145.309 31.8633 144.926C32.4883 144.543 32.9805 144.023 33.3398 143.367C33.707 142.711 33.8906 141.965 33.8906 141.129C33.8906 140.309 33.707 139.57 33.3398 138.914C32.9805 138.258 32.4883 137.738 31.8633 137.355C31.2383 136.973 30.5312 136.781 29.7422 136.781C28.9531 136.781 28.2422 136.973 27.6094 137.355C26.9844 137.738 26.4883 138.258 26.1211 138.914C25.7617 139.57 25.582 140.309 25.582 141.129C25.582 141.965 25.7617 142.711 26.1211 143.367C26.4883 144.023 26.9844 144.543 27.6094 144.926C28.2422 145.309 28.9531 145.5 29.7422 145.5ZM49.5352 147H47.6133V140.461C47.6133 139.352 47.2969 138.465 46.6641 137.801C46.0312 137.137 45.1914 136.805 44.1445 136.805C43.0586 136.805 42.1758 137.164 41.4961 137.883C40.8242 138.594 40.4883 139.531 40.4883 140.695V147H38.5664V135.281H40.2422L40.3125 137.18C40.7422 136.492 41.3086 135.965 42.0117 135.598C42.7148 135.23 43.543 135.047 44.4961 135.047C46.0508 135.047 47.2773 135.516 48.1758 136.453C49.082 137.391 49.5352 138.676 49.5352 140.309V147ZM59.4961 146.719C58.7227 147.062 57.9688 147.234 57.2344 147.234C56.5312 147.234 55.9141 147.082 55.3828 146.777C54.8516 146.465 54.4375 146.031 54.1406 145.477C53.8438 144.914 53.6953 144.262 53.6953 143.52V137.004H51.6445V135.281H53.7891V132.352H55.6172V135.281H59.1211V137.004H55.6172V143.168C55.6172 143.871 55.8047 144.438 56.1797 144.867C56.5625 145.297 57.0625 145.512 57.6797 145.512C58.1797 145.512 58.6797 145.363 59.1797 145.066L59.4961 146.719ZM72.3516 145.559C70.8984 146.676 69.2969 147.234 67.5469 147.234C66.3281 147.234 65.2344 146.961 64.2656 146.414C63.2969 145.867 62.5312 145.125 61.9688 144.188C61.4141 143.242 61.1367 142.176 61.1367 140.988C61.1367 139.848 61.3945 138.832 61.9102 137.941C62.4258 137.043 63.1328 136.336 64.0312 135.82C64.9297 135.305 65.9492 135.047 67.0898 135.047C68.2617 135.047 69.293 135.328 70.1836 135.891C71.082 136.453 71.7812 137.234 72.2812 138.234C72.7812 139.234 73.0312 140.391 73.0312 141.703V142.078H63.2227C63.3633 142.766 63.6445 143.363 64.0664 143.871C64.4961 144.379 65.0273 144.773 65.6602 145.055C66.293 145.336 67 145.477 67.7812 145.477C69.125 145.477 70.3516 145.035 71.4609 144.152L72.3516 145.559ZM63.1523 140.438H71.2148C71.1289 139.711 70.9023 139.078 70.5352 138.539C70.1758 137.992 69.707 137.566 69.1289 137.262C68.5586 136.957 67.9141 136.805 67.1953 136.805C66.4688 136.805 65.8125 136.957 65.2266 137.262C64.6484 137.566 64.1758 137.992 63.8086 138.539C63.4492 139.078 63.2305 139.711 63.1523 140.438ZM86.707 147H84.7852V140.461C84.7852 139.352 84.4688 138.465 83.8359 137.801C83.2031 137.137 82.3633 136.805 81.3164 136.805C80.2305 136.805 79.3477 137.164 78.668 137.883C77.9961 138.594 77.6602 139.531 77.6602 140.695V147H75.7383V135.281H77.4141L77.4844 137.18C77.9141 136.492 78.4805 135.965 79.1836 135.598C79.8867 135.23 80.7148 135.047 81.668 135.047C83.2227 135.047 84.4492 135.516 85.3477 136.453C86.2539 137.391 86.707 138.676 86.707 140.309V147ZM101.543 147H99.832L99.7266 145.289C99.1875 145.891 98.5312 146.367 97.7578 146.719C96.9844 147.062 96.1406 147.234 95.2266 147.234C94.0703 147.234 93.0352 146.969 92.1211 146.438C91.207 145.906 90.4844 145.18 89.9531 144.258C89.4297 143.336 89.168 142.297 89.168 141.141C89.168 139.977 89.4297 138.938 89.9531 138.023C90.4844 137.102 91.207 136.375 92.1211 135.844C93.0352 135.312 94.0703 135.047 95.2266 135.047C96.1094 135.047 96.9258 135.207 97.6758 135.527C98.4336 135.848 99.082 136.293 99.6211 136.863V129.422H101.543V147ZM95.3906 145.5C96.1719 145.5 96.8828 145.32 97.5234 144.961C98.1641 144.594 98.6719 144.098 99.0469 143.473C99.4297 142.84 99.6211 142.125 99.6211 141.328V140.93C99.6211 140.133 99.4297 139.422 99.0469 138.797C98.6719 138.164 98.1641 137.668 97.5234 137.309C96.8828 136.949 96.1719 136.77 95.3906 136.77C94.5781 136.77 93.8516 136.961 93.2109 137.344C92.5703 137.727 92.0625 138.246 91.6875 138.902C91.3203 139.559 91.1367 140.301 91.1367 141.129C91.1367 141.957 91.3203 142.703 91.6875 143.367C92.0625 144.023 92.5703 144.543 93.2109 144.926C93.8516 145.309 94.5781 145.5 95.3906 145.5ZM111.035 147V129.422H116.098C118.254 129.422 120.105 129.773 121.652 130.477C123.207 131.18 124.398 132.188 125.227 133.5C126.062 134.812 126.48 136.383 126.48 138.211C126.48 140.031 126.062 141.602 125.227 142.922C124.398 144.234 123.207 145.242 121.652 145.945C120.105 146.648 118.254 147 116.098 147H111.035ZM113.098 145.172H116.191C117.918 145.172 119.391 144.898 120.609 144.352C121.828 143.805 122.758 143.012 123.398 141.973C124.047 140.934 124.371 139.68 124.371 138.211C124.371 136.742 124.047 135.488 123.398 134.449C122.758 133.41 121.828 132.617 120.609 132.07C119.391 131.523 117.918 131.25 116.191 131.25H113.098V145.172ZM139.57 145.559C138.117 146.676 136.516 147.234 134.766 147.234C133.547 147.234 132.453 146.961 131.484 146.414C130.516 145.867 129.75 145.125 129.188 144.188C128.633 143.242 128.355 142.176 128.355 140.988C128.355 139.848 128.613 138.832 129.129 137.941C129.645 137.043 130.352 136.336 131.25 135.82C132.148 135.305 133.168 135.047 134.309 135.047C135.48 135.047 136.512 135.328 137.402 135.891C138.301 136.453 139 137.234 139.5 138.234C140 139.234 140.25 140.391 140.25 141.703V142.078H130.441C130.582 142.766 130.863 143.363 131.285 143.871C131.715 144.379 132.246 144.773 132.879 145.055C133.512 145.336 134.219 145.477 135 145.477C136.344 145.477 137.57 145.035 138.68 144.152L139.57 145.559ZM130.371 140.438H138.434C138.348 139.711 138.121 139.078 137.754 138.539C137.395 137.992 136.926 137.566 136.348 137.262C135.777 136.957 135.133 136.805 134.414 136.805C133.688 136.805 133.031 136.957 132.445 137.262C131.867 137.566 131.395 137.992 131.027 138.539C130.668 139.078 130.449 139.711 130.371 140.438ZM153.387 135.281L148.453 147H146.59L141.668 135.281H143.742L147.539 144.984L151.348 135.281H153.387ZM166.008 145.559C164.555 146.676 162.953 147.234 161.203 147.234C159.984 147.234 158.891 146.961 157.922 146.414C156.953 145.867 156.188 145.125 155.625 144.188C155.07 143.242 154.793 142.176 154.793 140.988C154.793 139.848 155.051 138.832 155.566 137.941C156.082 137.043 156.789 136.336 157.688 135.82C158.586 135.305 159.605 135.047 160.746 135.047C161.918 135.047 162.949 135.328 163.84 135.891C164.738 136.453 165.438 137.234 165.938 138.234C166.438 139.234 166.688 140.391 166.688 141.703V142.078H156.879C157.02 142.766 157.301 143.363 157.723 143.871C158.152 144.379 158.684 144.773 159.316 145.055C159.949 145.336 160.656 145.477 161.438 145.477C162.781 145.477 164.008 145.035 165.117 144.152L166.008 145.559ZM156.809 140.438H164.871C164.785 139.711 164.559 139.078 164.191 138.539C163.832 137.992 163.363 137.566 162.785 137.262C162.215 136.957 161.57 136.805 160.852 136.805C160.125 136.805 159.469 136.957 158.883 137.262C158.305 137.566 157.832 137.992 157.465 138.539C157.105 139.078 156.887 139.711 156.809 140.438ZM171.434 147H169.395V128.953H171.434V147ZM180.27 147.234C179.105 147.234 178.059 146.969 177.129 146.438C176.199 145.906 175.465 145.184 174.926 144.27C174.395 143.348 174.129 142.305 174.129 141.141C174.129 139.984 174.395 138.949 174.926 138.035C175.465 137.113 176.199 136.387 177.129 135.855C178.059 135.316 179.105 135.047 180.27 135.047C181.434 135.047 182.477 135.316 183.398 135.855C184.32 136.387 185.047 137.113 185.578 138.035C186.109 138.949 186.375 139.984 186.375 141.141C186.375 142.305 186.109 143.348 185.578 144.27C185.047 145.184 184.32 145.906 183.398 146.438C182.477 146.969 181.434 147.234 180.27 147.234ZM180.258 145.5C181.047 145.5 181.754 145.309 182.379 144.926C183.004 144.543 183.496 144.023 183.855 143.367C184.223 142.711 184.406 141.965 184.406 141.129C184.406 140.309 184.223 139.57 183.855 138.914C183.496 138.258 183.004 137.738 182.379 137.355C181.754 136.973 181.047 136.781 180.258 136.781C179.469 136.781 178.758 136.973 178.125 137.355C177.5 137.738 177.004 138.258 176.637 138.914C176.277 139.57 176.098 140.309 176.098 141.129C176.098 141.965 176.277 142.711 176.637 143.367C177.004 144.023 177.5 144.543 178.125 144.926C178.758 145.309 179.469 145.5 180.258 145.5ZM191.004 152.859H189.082V135.281H190.793L190.887 136.992C191.434 136.391 192.094 135.918 192.867 135.574C193.641 135.223 194.488 135.047 195.41 135.047C196.559 135.047 197.586 135.312 198.492 135.844C199.406 136.375 200.125 137.102 200.648 138.023C201.18 138.938 201.445 139.977 201.445 141.141C201.445 142.297 201.18 143.336 200.648 144.258C200.125 145.18 199.406 145.906 198.492 146.438C197.586 146.969 196.559 147.234 195.41 147.234C194.527 147.234 193.707 147.074 192.949 146.754C192.199 146.434 191.551 145.988 191.004 145.418V152.859ZM195.258 145.477C196.078 145.477 196.805 145.293 197.438 144.926C198.07 144.551 198.562 144.035 198.914 143.379C199.273 142.723 199.453 141.973 199.453 141.129C199.453 140.277 199.273 139.527 198.914 138.879C198.555 138.223 198.059 137.707 197.426 137.332C196.801 136.957 196.082 136.77 195.27 136.77C194.496 136.77 193.797 136.941 193.172 137.285C192.555 137.629 192.055 138.102 191.672 138.703C191.289 139.297 191.066 139.977 191.004 140.742V141.539C191.066 142.305 191.285 142.984 191.66 143.578C192.035 144.172 192.531 144.637 193.148 144.973C193.773 145.309 194.477 145.477 195.258 145.477ZM214.43 145.559C212.977 146.676 211.375 147.234 209.625 147.234C208.406 147.234 207.312 146.961 206.344 146.414C205.375 145.867 204.609 145.125 204.047 144.188C203.492 143.242 203.215 142.176 203.215 140.988C203.215 139.848 203.473 138.832 203.988 137.941C204.504 137.043 205.211 136.336 206.109 135.82C207.008 135.305 208.027 135.047 209.168 135.047C210.34 135.047 211.371 135.328 212.262 135.891C213.16 136.453 213.859 137.234 214.359 138.234C214.859 139.234 215.109 140.391 215.109 141.703V142.078H205.301C205.441 142.766 205.723 143.363 206.145 143.871C206.574 144.379 207.105 144.773 207.738 145.055C208.371 145.336 209.078 145.477 209.859 145.477C211.203 145.477 212.43 145.035 213.539 144.152L214.43 145.559ZM205.23 140.438H213.293C213.207 139.711 212.98 139.078 212.613 138.539C212.254 137.992 211.785 137.566 211.207 137.262C210.637 136.957 209.992 136.805 209.273 136.805C208.547 136.805 207.891 136.957 207.305 137.262C206.727 137.566 206.254 137.992 205.887 138.539C205.527 139.078 205.309 139.711 205.23 140.438ZM219.738 147H217.816V135.281H219.504L219.586 137.602C219.992 136.797 220.562 136.172 221.297 135.727C222.039 135.273 222.891 135.047 223.852 135.047C224.062 135.047 224.277 135.059 224.496 135.082C224.715 135.105 224.934 135.141 225.152 135.188L224.918 136.922C224.488 136.82 224.062 136.77 223.641 136.77C222.875 136.77 222.195 136.957 221.602 137.332C221.016 137.707 220.559 138.223 220.23 138.879C219.902 139.535 219.738 140.289 219.738 141.141V147Z" fill="#fafafa"/>
</svg>
