<svg width="104" height="111" viewBox="0 0 104 111" fill="none" xmlns="http://www.w3.org/2000/svg">
<path d="M22.7047 108.975C22.7047 108.975 8.6716 103.251 4.1677 92.5965C4.15588 92.5686 4.1449 92.545 4.13123 92.5179C3.82425 91.9095 -0.101678 83.7185 3.53542 69.6172C3.65702 69.1457 4.10794 68.8316 4.59254 68.879L7.55523 69.1691C8.13669 69.2261 8.54352 69.777 8.44481 70.3529C5.14587 89.5984 8.8789 96.9108 23.8591 104.433C24.3495 104.679 24.9517 104.481 25.1971 103.99L26.3407 101.702C26.5936 101.197 26.3722 100.581 25.862 100.337C13.4059 94.3869 10.5079 87.8941 13.5179 70.8253C13.6101 70.3024 14.0999 69.9379 14.6266 70.0055L17.5957 70.3867C18.1693 70.4604 18.5596 71.0084 18.4541 71.577C15.9176 85.2479 17.8448 91.2955 27.622 96.2723C28.0828 96.5069 28.6463 96.3394 28.9123 95.8961L30.3639 93.4768C30.657 92.9882 30.4804 92.3538 29.9847 92.0729C22.5157 87.8395 20.1165 83.7347 23.7209 71.1468" stroke="#D68F24" stroke-width="3" stroke-linecap="round"/>
<path d="M37.8711 15.5254L56.9526 68.7361C57.1862 69.3877 56.7033 70.0738 56.0111 70.0737L45.5811 70.0719C45.1403 70.0718 44.7514 70.3604 44.6237 70.7823L43.9993 72.8459C43.8051 73.488 44.2856 74.1355 44.9565 74.1355H58.2892C58.7013 74.1355 59.0711 74.3882 59.2209 74.772L59.8914 76.4908C60.1474 77.1469 59.663 77.855 58.9587 77.8543L42.8609 77.8369C42.4336 77.8364 42.0533 78.1075 41.9142 78.5115L41.3371 80.1883C41.1137 80.8373 41.5957 81.5133 42.2822 81.5137L61.1649 81.5233C61.5768 81.5235 61.9464 81.7762 62.096 82.16L62.7507 83.8383C63.0064 84.494 62.5228 85.2017 61.819 85.2017H40.6817C40.2319 85.2017 39.8375 85.502 39.7178 85.9356L39.2533 87.6176C39.0775 88.2544 39.5564 88.8836 40.217 88.8838L63.8567 88.8903C64.2699 88.8904 64.6404 89.1446 64.7893 89.53L71.6542 107.303C71.9361 108.033 72.9095 108.171 73.3831 107.548L75.0833 105.311C75.2899 105.04 75.3436 104.681 75.2257 104.361L43.0212 16.8708C42.7809 16.218 43.264 15.5254 43.9596 15.5254H46.7396C47.1622 15.5254 47.5392 15.7911 47.6813 16.1891L77.2511 98.9845C77.537 99.7851 78.6282 99.8863 79.0566 99.152L80.6093 96.4901C80.7575 96.2362 80.7864 95.93 80.6884 95.6529L52.8294 16.8587C52.5994 16.208 53.082 15.5254 53.7722 15.5254H56.5641C56.9904 15.5254 57.3698 15.7956 57.5092 16.1985L83.3656 90.9398M101.809 40.5269C103.03 20.7004 98.6183 12.4186 83.5189 2.62396C83.0095 2.29351 82.3217 2.49336 82.0704 3.04614L80.8508 5.72929C80.6469 6.17782 80.8061 6.71131 81.2156 6.98523C94.3718 15.7851 98.2783 22.7456 96.597 38.6706C96.5375 39.2337 96.0167 39.6357 95.457 39.5496L92.1086 39.0345C91.5757 38.9525 91.2049 38.4582 91.2637 37.9222C92.7303 24.5514 90.5379 18.1029 79.3952 11.5616C78.8897 11.2648 78.2389 11.4755 77.9963 12.0091L76.7905 14.6618C76.5705 15.1459 76.7692 15.7167 77.2357 15.972C85.8473 20.6855 88.0344 25.8743 86.3752 37.1541C86.2995 37.669 85.8353 38.037 85.3164 37.9971L82.0862 37.7486C81.4692 37.7012 81.0448 37.1069 81.1821 36.5034C83.0743 28.1883 81.8067 24.1788 74.3487 19.624" stroke="#D68F24" stroke-width="3" stroke-linecap="round"/>
</svg>
