<svg width="126" height="134" viewBox="0 0 126 134" fill="none" xmlns="http://www.w3.org/2000/svg">
<path d="M27.2582 132.5C27.2582 132.5 10.1307 125.515 4.64053 112.511C4.62872 112.483 4.61717 112.458 4.60345 112.431C4.25545 111.744 -0.611774 101.676 3.91959 84.3078C4.04251 83.8367 4.49364 83.521 4.97824 83.5685L9.01437 83.9637C9.59583 84.0206 10.0023 84.574 9.90266 85.1496C5.79314 108.887 10.3629 117.816 28.861 127.057C29.3518 127.302 29.9559 127.105 30.2013 126.614L31.7956 123.425C32.0485 122.92 31.8247 122.302 31.3137 122.06C15.896 114.751 12.3395 106.825 16.0873 85.7559C16.1803 85.2332 16.6704 84.8666 17.197 84.9342L21.2587 85.4558C21.8323 85.5294 22.2221 86.0803 22.1155 86.6487C18.9416 103.571 21.298 110.978 33.4343 117.094C33.896 117.327 34.4618 117.161 34.7278 116.718L36.7201 113.397C37.0133 112.908 36.839 112.275 36.3422 111.996C27.0713 106.79 24.0683 101.823 28.4979 86.3531" stroke="#92723F" stroke-width="3" stroke-linecap="round"/>
<path d="M45.7578 18.5L69.1414 83.7074C69.375 84.3589 68.892 85.0451 68.1999 85.045L55.0001 85.0427C54.5593 85.0426 54.1705 85.3312 54.0428 85.7531L53.148 88.7104C52.9537 89.3525 53.4343 90 54.1052 90H70.8167C71.2287 90 71.5986 90.2527 71.7483 90.6365L72.7381 93.1735C72.9941 93.8296 72.5097 94.5377 71.8054 94.537L51.6879 94.5153C51.2607 94.5148 50.8803 94.7858 50.7413 95.1898L49.8858 97.6753C49.6624 98.3243 50.1445 99.0004 50.8309 99.0007L74.3247 99.0127C74.7366 99.0129 75.1062 99.2656 75.2559 99.6493L76.226 102.137C76.4818 102.792 75.9982 103.5 75.2944 103.5H49.0191C48.5693 103.5 48.1749 103.8 48.0552 104.234L47.3672 106.726C47.1914 107.362 47.6703 107.992 48.3309 107.992L77.6091 108C78.0223 108 78.3928 108.254 78.5417 108.64L87.1126 130.83C87.3946 131.56 88.3679 131.697 88.8415 131.074L91.2269 127.936C91.4335 127.665 91.4872 127.306 91.3693 126.986L51.9316 19.8454C51.6913 19.1926 52.1744 18.5 52.8701 18.5H56.7317C57.1543 18.5 57.5313 18.7657 57.6734 19.1637L93.9575 120.759C94.2434 121.56 95.3346 121.661 95.763 120.927L97.9467 117.183C98.0948 116.929 98.1237 116.623 98.0257 116.346L63.9022 19.8333C63.6721 19.1826 64.1548 18.5 64.845 18.5H68.7186C69.1449 18.5 69.5243 18.7702 69.6636 19.1731L101.258 110.5M123.758 49C125.253 24.7208 119.824 14.633 101.233 2.62435C100.723 2.29488 100.034 2.49336 99.7823 3.04614L98.112 6.72083C97.9081 7.16935 98.0685 7.70378 98.4785 7.9771C114.716 18.8034 119.494 27.3105 117.375 46.9612C117.314 47.5242 116.793 47.9285 116.234 47.8424L111.713 47.147C111.181 47.065 110.81 46.5684 110.87 46.0326C112.714 29.4966 110.039 21.6 96.2094 13.5447C95.7029 13.2497 95.0494 13.4585 94.8068 13.9922L93.1504 17.6364C92.9303 18.1205 93.1315 18.693 93.599 18.9464C104.306 24.7505 106.991 31.1067 104.9 45.0841C104.823 45.5987 104.358 45.9693 103.84 45.9294L99.4376 45.5907C98.8205 45.5433 98.3955 44.9505 98.5353 44.3476C100.928 34.0297 99.4322 29.103 90.2578 23.5" stroke="#92723F" stroke-width="3" stroke-linecap="round"/>
</svg>
