<svg width="130" height="141" viewBox="0 0 130 141" fill="none" xmlns="http://www.w3.org/2000/svg">
<g filter="url(#filter0_dddddi_1124_661)">
<path d="M57.1439 87.0469V89.5488H75.9339L75.0858 87.0469H57.1439Z" fill="url(#paint0_linear_1124_661)"/>
<path d="M54.1439 93.0468V95.5253H77.6159L76.7724 93.0468H54.1439Z" fill="url(#paint1_linear_1124_661)"/>
<path d="M105.722 42.043L103.238 42.0898C102.453 34.1469 99.1233 25.7414 91.6439 20.0469L93.304 17.9766C101.956 24.9031 104.876 33.6047 105.722 42.043Z" fill="url(#paint2_linear_1124_661)"/>
<path d="M125.147 47.7255H122.644C122.644 29.7726 115.07 12.5547 98.8119 2.08984L100.175 0C115.124 9.47656 125.144 25.5469 125.147 47.7255Z" fill="url(#paint3_linear_1124_661)"/>
<path d="M112.956 47.3125L110.456 47.332C109.644 30.5469 103.211 19.711 92.5814 12.4297L93.9134 10.3242C107.661 19.0135 112.863 33.9963 112.956 47.3125Z" fill="url(#paint4_linear_1124_661)"/>
<path d="M118.572 43.1914H116.054C115.144 28.5469 108.144 17.0469 98.7533 9.89944L100.265 7.91602C107.644 13.5469 117.644 25.0469 118.572 43.1914Z" fill="url(#paint5_linear_1124_661)"/>
<path d="M23.4251 86.9473L25.9095 86.9004C26.6943 94.8433 30.0239 103.249 37.5033 108.943L35.8431 111.014C27.1908 104.087 24.271 95.3855 23.4251 86.9473Z" fill="url(#paint6_linear_1124_661)"/>
<path d="M4 81.2647H6.50295C6.50296 99.2176 14.0775 116.436 30.3353 126.9L28.972 128.99C14.0228 119.514 4.00326 103.443 4 81.2647Z" fill="url(#paint7_linear_1124_661)"/>
<path d="M16.1908 81.6777L18.6908 81.6582C19.5033 98.4434 25.9363 109.279 36.5658 116.561L35.2337 118.666C21.486 109.977 16.2843 94.9939 16.1908 81.6777Z" fill="url(#paint8_linear_1124_661)"/>
<path d="M10.5751 85.7988H13.0931C14.0033 100.443 21.0033 111.943 30.3939 119.091L28.8823 121.074C21.5033 115.443 11.5033 103.943 10.5751 85.7988Z" fill="url(#paint9_linear_1124_661)"/>
<path d="M101.458 111.792L104.144 111.775L76.8197 29.8438H74.183L101.458 111.792Z" fill="url(#paint10_linear_1124_661)"/>
<path d="M97.4525 120.453H100.101L68.4017 25.4219L65.7572 25.4258L97.4525 120.453Z" fill="url(#paint11_linear_1124_661)"/>
<path d="M92.2807 125.455L94.9254 125.444L62.3331 27.6191L59.6947 27.62L92.2807 125.455Z" fill="url(#paint12_linear_1124_661)"/>
<path d="M53.5423 21.9453H50.9017L70.472 81.0586L60.0033 81.0547V83.5625H73.9369L53.5423 21.9453Z" fill="url(#paint13_linear_1124_661)"/>
<path d="M79.2589 99.3008H50.7064V101.809H77.4581L87.5987 132.145L90.255 132.137L79.2589 99.3008Z" fill="url(#paint14_linear_1124_661)"/>
</g>
<defs>
<filter id="filter0_dddddi_1124_661" x="0" y="0" width="129.148" height="140.145" filterUnits="userSpaceOnUse" color-interpolation-filters="sRGB">
<feFlood flood-opacity="0" result="BackgroundImageFix"/>
<feColorMatrix in="SourceAlpha" type="matrix" values="0 0 0 0 0 0 0 0 0 0 0 0 0 0 0 0 0 0 127 0" result="hardAlpha"/>
<feOffset dy="4"/>
<feGaussianBlur stdDeviation="2"/>
<feComposite in2="hardAlpha" operator="out"/>
<feColorMatrix type="matrix" values="0 0 0 0 0 0 0 0 0 0 0 0 0 0 0 0 0 0 0.25 0"/>
<feBlend mode="normal" in2="BackgroundImageFix" result="effect1_dropShadow_1124_661"/>
<feColorMatrix in="SourceAlpha" type="matrix" values="0 0 0 0 0 0 0 0 0 0 0 0 0 0 0 0 0 0 127 0" result="hardAlpha"/>
<feOffset dy="4"/>
<feGaussianBlur stdDeviation="2"/>
<feComposite in2="hardAlpha" operator="out"/>
<feColorMatrix type="matrix" values="0 0 0 0 0 0 0 0 0 0 0 0 0 0 0 0 0 0 0.25 0"/>
<feBlend mode="normal" in2="effect1_dropShadow_1124_661" result="effect2_dropShadow_1124_661"/>
<feColorMatrix in="SourceAlpha" type="matrix" values="0 0 0 0 0 0 0 0 0 0 0 0 0 0 0 0 0 0 127 0" result="hardAlpha"/>
<feOffset dy="4"/>
<feGaussianBlur stdDeviation="2"/>
<feComposite in2="hardAlpha" operator="out"/>
<feColorMatrix type="matrix" values="0 0 0 0 0 0 0 0 0 0 0 0 0 0 0 0 0 0 0.25 0"/>
<feBlend mode="normal" in2="effect2_dropShadow_1124_661" result="effect3_dropShadow_1124_661"/>
<feColorMatrix in="SourceAlpha" type="matrix" values="0 0 0 0 0 0 0 0 0 0 0 0 0 0 0 0 0 0 127 0" result="hardAlpha"/>
<feOffset dy="4"/>
<feGaussianBlur stdDeviation="2"/>
<feComposite in2="hardAlpha" operator="out"/>
<feColorMatrix type="matrix" values="0 0 0 0 0 0 0 0 0 0 0 0 0 0 0 0 0 0 0.25 0"/>
<feBlend mode="normal" in2="effect3_dropShadow_1124_661" result="effect4_dropShadow_1124_661"/>
<feColorMatrix in="SourceAlpha" type="matrix" values="0 0 0 0 0 0 0 0 0 0 0 0 0 0 0 0 0 0 127 0" result="hardAlpha"/>
<feOffset dy="4"/>
<feGaussianBlur stdDeviation="2"/>
<feComposite in2="hardAlpha" operator="out"/>
<feColorMatrix type="matrix" values="0 0 0 0 0 0 0 0 0 0 0 0 0 0 0 0 0 0 0.25 0"/>
<feBlend mode="normal" in2="effect4_dropShadow_1124_661" result="effect5_dropShadow_1124_661"/>
<feBlend mode="normal" in="SourceGraphic" in2="effect5_dropShadow_1124_661" result="shape"/>
<feColorMatrix in="SourceAlpha" type="matrix" values="0 0 0 0 0 0 0 0 0 0 0 0 0 0 0 0 0 0 127 0" result="hardAlpha"/>
<feOffset dy="4"/>
<feGaussianBlur stdDeviation="2"/>
<feComposite in2="hardAlpha" operator="arithmetic" k2="-1" k3="1"/>
<feColorMatrix type="matrix" values="0 0 0 0 0.870622 0 0 0 0 0.858336 0 0 0 0 0.858336 0 0 0 0.25 0"/>
<feBlend mode="normal" in2="shape" result="effect6_innerShadow_1124_661"/>
</filter>
<linearGradient id="paint0_linear_1124_661" x1="64.5736" y1="0" x2="64.5736" y2="132.145" gradientUnits="userSpaceOnUse">
<stop stop-color="#D68F24"/>
</linearGradient>
<linearGradient id="paint1_linear_1124_661" x1="64.5736" y1="0" x2="64.5736" y2="132.145" gradientUnits="userSpaceOnUse">
<stop stop-color="#D68F24"/>
</linearGradient>
<linearGradient id="paint2_linear_1124_661" x1="64.5736" y1="0" x2="64.5736" y2="132.145" gradientUnits="userSpaceOnUse">
<stop stop-color="#D68F24"/>
</linearGradient>
<linearGradient id="paint3_linear_1124_661" x1="64.5736" y1="0" x2="64.5736" y2="132.145" gradientUnits="userSpaceOnUse">
<stop stop-color="#D68F24"/>
</linearGradient>
<linearGradient id="paint4_linear_1124_661" x1="64.5736" y1="0" x2="64.5736" y2="132.145" gradientUnits="userSpaceOnUse">
<stop stop-color="#D68F24"/>
</linearGradient>
<linearGradient id="paint5_linear_1124_661" x1="64.5736" y1="0" x2="64.5736" y2="132.145" gradientUnits="userSpaceOnUse">
<stop stop-color="#D68F24"/>
</linearGradient>
<linearGradient id="paint6_linear_1124_661" x1="64.5736" y1="0" x2="64.5736" y2="132.145" gradientUnits="userSpaceOnUse">
<stop stop-color="#D68F24"/>
</linearGradient>
<linearGradient id="paint7_linear_1124_661" x1="64.5736" y1="0" x2="64.5736" y2="132.145" gradientUnits="userSpaceOnUse">
<stop stop-color="#D68F24"/>
</linearGradient>
<linearGradient id="paint8_linear_1124_661" x1="64.5736" y1="0" x2="64.5736" y2="132.145" gradientUnits="userSpaceOnUse">
<stop stop-color="#D68F24"/>
</linearGradient>
<linearGradient id="paint9_linear_1124_661" x1="64.5736" y1="0" x2="64.5736" y2="132.145" gradientUnits="userSpaceOnUse">
<stop stop-color="#D68F24"/>
</linearGradient>
<linearGradient id="paint10_linear_1124_661" x1="64.5736" y1="0" x2="64.5736" y2="132.145" gradientUnits="userSpaceOnUse">
<stop stop-color="#D68F24"/>
</linearGradient>
<linearGradient id="paint11_linear_1124_661" x1="64.5736" y1="0" x2="64.5736" y2="132.145" gradientUnits="userSpaceOnUse">
<stop stop-color="#D68F24"/>
</linearGradient>
<linearGradient id="paint12_linear_1124_661" x1="64.5736" y1="0" x2="64.5736" y2="132.145" gradientUnits="userSpaceOnUse">
<stop stop-color="#D68F24"/>
</linearGradient>
<linearGradient id="paint13_linear_1124_661" x1="64.5736" y1="0" x2="64.5736" y2="132.145" gradientUnits="userSpaceOnUse">
<stop stop-color="#D68F24"/>
</linearGradient>
<linearGradient id="paint14_linear_1124_661" x1="64.5736" y1="0" x2="64.5736" y2="132.145" gradientUnits="userSpaceOnUse">
<stop stop-color="#D68F24"/>
</linearGradient>
</defs>
</svg>
