<svg width="102" height="109" viewBox="0 0 102 109" fill="none" xmlns="http://www.w3.org/2000/svg">
<path d="M21.7047 107.975C21.7047 107.975 7.6716 102.251 3.1677 91.5965C3.15588 91.5686 3.1449 91.545 3.13123 91.5179C2.82425 90.9095 -1.10168 82.7185 2.53542 68.6172C2.65702 68.1457 3.10794 67.8316 3.59254 67.879L6.55523 68.1691C7.13669 68.2261 7.54352 68.777 7.44481 69.3529C4.14587 88.5984 7.8789 95.9108 22.8591 103.433C23.3495 103.679 23.9517 103.481 24.1971 102.99L25.3407 100.702C25.5936 100.197 25.3722 99.5807 24.862 99.337C12.4059 93.3869 9.50794 86.8941 12.5179 69.8253C12.6101 69.3024 13.0999 68.9379 13.6266 69.0055L16.5957 69.3867C17.1693 69.4604 17.5596 70.0084 17.4541 70.577C14.9176 84.2479 16.8448 90.2955 26.622 95.2723C27.0828 95.5069 27.6463 95.3394 27.9123 94.8961L29.3639 92.4768C29.657 91.9882 29.4804 91.3538 28.9847 91.0729C21.5157 86.8395 19.1165 82.7347 22.7209 70.1468" stroke="#D68F24" stroke-width="2" stroke-linecap="round"/>
<path d="M36.8711 14.5254L55.9526 67.7361C56.1862 68.3877 55.7033 69.0738 55.0111 69.0737L44.5811 69.0719C44.1403 69.0718 43.7514 69.3604 43.6237 69.7823L42.9993 71.8459C42.8051 72.488 43.2856 73.1355 43.9565 73.1355H57.2892C57.7013 73.1355 58.0711 73.3882 58.2209 73.772L58.8914 75.4908C59.1474 76.1469 58.663 76.855 57.9587 76.8543L41.8609 76.8369C41.4336 76.8364 41.0533 77.1075 40.9142 77.5115L40.3371 79.1883C40.1137 79.8373 40.5957 80.5133 41.2822 80.5137L60.1649 80.5233C60.5768 80.5235 60.9464 80.7762 61.096 81.16L61.7507 82.8383C62.0064 83.494 61.5228 84.2017 60.819 84.2017H39.6817C39.2319 84.2017 38.8375 84.502 38.7178 84.9356L38.2533 86.6176C38.0775 87.2544 38.5564 87.8836 39.217 87.8838L62.8567 87.8903C63.2699 87.8904 63.6404 88.1446 63.7893 88.53L70.6542 106.303C70.9361 107.033 71.9095 107.171 72.3831 106.548L74.0833 104.311C74.2899 104.04 74.3436 103.681 74.2257 103.361L42.0212 15.8708C41.7809 15.218 42.264 14.5254 42.9596 14.5254H45.7396C46.1622 14.5254 46.5392 14.7911 46.6813 15.1891L76.2511 97.9845C76.537 98.7851 77.6282 98.8863 78.0566 98.152L79.6093 95.4901C79.7575 95.2362 79.7864 94.93 79.6884 94.6529L51.8294 15.8587C51.5994 15.208 52.082 14.5254 52.7722 14.5254H55.5641C55.9904 14.5254 56.3698 14.7956 56.5092 15.1985L82.3656 89.9398M100.809 39.5269C102.03 19.7004 97.6183 11.4186 82.5189 1.62396C82.0095 1.29351 81.3217 1.49336 81.0704 2.04614L79.8508 4.72929C79.6469 5.17782 79.8061 5.71131 80.2156 5.98523C93.3718 14.7851 97.2783 21.7456 95.597 37.6706C95.5375 38.2337 95.0167 38.6357 94.457 38.5496L91.1086 38.0345C90.5757 37.9525 90.2049 37.4582 90.2637 36.9222C91.7303 23.5514 89.5379 17.1029 78.3952 10.5616C77.8897 10.2648 77.2389 10.4755 76.9963 11.0091L75.7905 13.6618C75.5705 14.1459 75.7692 14.7167 76.2357 14.972C84.8473 19.6855 87.0344 24.8743 85.3752 36.1541C85.2995 36.669 84.8353 37.037 84.3164 36.9971L81.0862 36.7486C80.4692 36.7012 80.0448 36.1069 80.1821 35.5034C82.0743 27.1883 80.8067 23.1788 73.3487 18.624" stroke="#D68F24" stroke-width="2" stroke-linecap="round"/>
</svg>
